<svg width="202" height="63" viewBox="0 0 202 63" fill="none" xmlns="http://www.w3.org/2000/svg">
<path d="M68.0859 55V31H77.5547C79.375 31 80.9258 31.3477 82.207 32.043C83.4883 32.7305 84.4648 33.6875 85.1367 34.9141C85.8164 36.1328 86.1563 37.5391 86.1563 39.1328C86.1563 40.7266 85.8125 42.1328 85.125 43.3516C84.4375 44.5703 83.4414 45.5195 82.1367 46.1992C80.8398 46.8789 79.2695 47.2187 77.4258 47.2187H71.3906V43.1523H76.6055C77.582 43.1523 78.3867 42.9844 79.0195 42.6484C79.6602 42.3047 80.1367 41.832 80.4492 41.2305C80.7695 40.6211 80.9297 39.9219 80.9297 39.1328C80.9297 38.3359 80.7695 37.6406 80.4492 37.0469C80.1367 36.4453 79.6602 35.9805 79.0195 35.6523C78.3789 35.3164 77.5664 35.1484 76.582 35.1484H73.1602V55H68.0859ZM89.3584 55V37H94.1982V40.1406H94.3857C94.7139 39.0234 95.2646 38.1797 96.0381 37.6094C96.8115 37.0312 97.7021 36.7422 98.71 36.7422C98.96 36.7422 99.2295 36.7578 99.5186 36.7891C99.8076 36.8203 100.062 36.8633 100.28 36.918V41.3477C100.046 41.2773 99.7217 41.2148 99.3076 41.1602C98.8936 41.1055 98.5146 41.0781 98.1709 41.0781C97.4365 41.0781 96.7803 41.2383 96.2021 41.5586C95.6318 41.8711 95.1787 42.3086 94.8428 42.8711C94.5146 43.4336 94.3506 44.082 94.3506 44.8164V55H89.3584ZM110.156 55.3516C108.336 55.3516 106.762 54.9648 105.434 54.1914C104.113 53.4102 103.094 52.3242 102.375 50.9336C101.656 49.5352 101.297 47.9141 101.297 46.0703C101.297 44.2109 101.656 42.5859 102.375 41.1953C103.094 39.7969 104.113 38.7109 105.434 37.9375C106.762 37.1562 108.336 36.7656 110.156 36.7656C111.977 36.7656 113.547 37.1562 114.867 37.9375C116.195 38.7109 117.219 39.7969 117.937 41.1953C118.656 42.5859 119.016 44.2109 119.016 46.0703C119.016 47.9141 118.656 49.5352 117.937 50.9336C117.219 52.3242 116.195 53.4102 114.867 54.1914C113.547 54.9648 111.977 55.3516 110.156 55.3516ZM110.18 51.4844C111.008 51.4844 111.699 51.25 112.254 50.7813C112.809 50.3047 113.227 49.6562 113.508 48.8359C113.797 48.0156 113.941 47.082 113.941 46.0352C113.941 44.9883 113.797 44.0547 113.508 43.2344C113.227 42.4141 112.809 41.7656 112.254 41.2891C111.699 40.8125 111.008 40.5742 110.18 40.5742C109.344 40.5742 108.641 40.8125 108.07 41.2891C107.508 41.7656 107.082 42.4141 106.793 43.2344C106.512 44.0547 106.371 44.9883 106.371 46.0352C106.371 47.082 106.512 48.0156 106.793 48.8359C107.082 49.6562 107.508 50.3047 108.07 50.7813C108.641 51.25 109.344 51.4844 110.18 51.4844ZM131.836 37V40.75H120.996V37H131.836ZM123.457 32.6875H128.449V49.4687C128.449 49.9297 128.52 50.2891 128.66 50.5469C128.801 50.7969 128.996 50.9727 129.246 51.0742C129.504 51.1758 129.801 51.2266 130.137 51.2266C130.371 51.2266 130.605 51.207 130.84 51.168C131.074 51.1211 131.254 51.0859 131.379 51.0625L132.164 54.7773C131.914 54.8555 131.563 54.9453 131.109 55.0469C130.656 55.1563 130.105 55.2227 129.457 55.2461C128.254 55.293 127.199 55.1328 126.293 54.7656C125.395 54.3984 124.695 53.8281 124.195 53.0547C123.695 52.2812 123.449 51.3047 123.457 50.125V32.6875ZM143.027 55.3516C141.207 55.3516 139.633 54.9648 138.305 54.1914C136.984 53.4102 135.965 52.3242 135.246 50.9336C134.527 49.5352 134.168 47.9141 134.168 46.0703C134.168 44.2109 134.527 42.5859 135.246 41.1953C135.965 39.7969 136.984 38.7109 138.305 37.9375C139.633 37.1562 141.207 36.7656 143.027 36.7656C144.848 36.7656 146.418 37.1562 147.738 37.9375C149.066 38.7109 150.09 39.7969 150.809 41.1953C151.527 42.5859 151.887 44.2109 151.887 46.0703C151.887 47.9141 151.527 49.5352 150.809 50.9336C150.09 52.3242 149.066 53.4102 147.738 54.1914C146.418 54.9648 144.848 55.3516 143.027 55.3516ZM143.051 51.4844C143.879 51.4844 144.57 51.25 145.125 50.7813C145.68 50.3047 146.098 49.6562 146.379 48.8359C146.668 48.0156 146.813 47.082 146.813 46.0352C146.813 44.9883 146.668 44.0547 146.379 43.2344C146.098 42.4141 145.68 41.7656 145.125 41.2891C144.57 40.8125 143.879 40.5742 143.051 40.5742C142.215 40.5742 141.512 40.8125 140.941 41.2891C140.379 41.7656 139.953 42.4141 139.664 43.2344C139.383 44.0547 139.242 44.9883 139.242 46.0352C139.242 47.082 139.383 48.0156 139.664 48.8359C139.953 49.6562 140.379 50.3047 140.941 50.7813C141.512 51.25 142.215 51.4844 143.051 51.4844ZM163.266 55.3516C161.422 55.3516 159.836 54.9609 158.508 54.1797C157.188 53.3906 156.172 52.2969 155.461 50.8984C154.758 49.5 154.406 47.8906 154.406 46.0703C154.406 44.2266 154.762 42.6094 155.473 41.2187C156.191 39.8203 157.211 38.7305 158.531 37.9492C159.852 37.1602 161.422 36.7656 163.242 36.7656C164.813 36.7656 166.188 37.0508 167.367 37.6211C168.547 38.1914 169.48 38.9922 170.168 40.0234C170.855 41.0547 171.234 42.2656 171.305 43.6562H166.594C166.461 42.7578 166.109 42.0352 165.539 41.4883C164.977 40.9336 164.238 40.6562 163.324 40.6562C162.551 40.6562 161.875 40.8672 161.297 41.2891C160.727 41.7031 160.281 42.3086 159.961 43.1055C159.641 43.9023 159.48 44.8672 159.48 46C159.48 47.1484 159.637 48.125 159.949 48.9297C160.27 49.7344 160.719 50.3477 161.297 50.7695C161.875 51.1914 162.551 51.4023 163.324 51.4023C163.895 51.4023 164.406 51.2852 164.859 51.0508C165.32 50.8164 165.699 50.4766 165.996 50.0312C166.301 49.5781 166.5 49.0352 166.594 48.4023H171.305C171.227 49.7773 170.852 50.9883 170.18 52.0352C169.516 53.0742 168.598 53.8867 167.426 54.4727C166.254 55.0586 164.867 55.3516 163.266 55.3516ZM182.634 55.3516C180.813 55.3516 179.239 54.9648 177.911 54.1914C176.591 53.4102 175.571 52.3242 174.853 50.9336C174.134 49.5352 173.774 47.9141 173.774 46.0703C173.774 44.2109 174.134 42.5859 174.853 41.1953C175.571 39.7969 176.591 38.7109 177.911 37.9375C179.239 37.1562 180.813 36.7656 182.634 36.7656C184.454 36.7656 186.024 37.1562 187.345 37.9375C188.673 38.7109 189.696 39.7969 190.415 41.1953C191.134 42.5859 191.493 44.2109 191.493 46.0703C191.493 47.9141 191.134 49.5352 190.415 50.9336C189.696 52.3242 188.673 53.4102 187.345 54.1914C186.024 54.9648 184.454 55.3516 182.634 55.3516ZM182.657 51.4844C183.485 51.4844 184.177 51.25 184.731 50.7813C185.286 50.3047 185.704 49.6562 185.985 48.8359C186.274 48.0156 186.419 47.082 186.419 46.0352C186.419 44.9883 186.274 44.0547 185.985 43.2344C185.704 42.4141 185.286 41.7656 184.731 41.2891C184.177 40.8125 183.485 40.5742 182.657 40.5742C181.821 40.5742 181.118 40.8125 180.548 41.2891C179.985 41.7656 179.56 42.4141 179.271 43.2344C178.989 44.0547 178.849 44.9883 178.849 46.0352C178.849 47.082 178.989 48.0156 179.271 48.8359C179.56 49.6562 179.985 50.3047 180.548 50.7813C181.118 51.25 181.821 51.4844 182.657 51.4844ZM199.731 31V55H194.739V31H199.731Z" fill="black"/>
<path d="M28.8521 1H24.9233V55.3482H28.8521V1Z" fill="black" stroke="black" stroke-width="1.5"/>
<path d="M2 20.706L2 24.6348H17.715V20.706H2Z" fill="black" stroke="black" stroke-width="1.5"/>
<path d="M2.00835 43.9742L5.37595 45.9977L20.5756 20.7012L15.9922 20.7012L2.00835 43.9742Z" fill="black" stroke="black" stroke-width="1.5"/>
<path d="M52 20.706V24.6348H36.2827V20.706H52Z" fill="black" stroke="black" stroke-width="1.5"/>
<path d="M51.9938 43.9741L48.6257 45.9976L33.4239 20.7012L38.008 20.7012L51.9938 43.9741Z" fill="black" stroke="black" stroke-width="1.5"/>
</svg>
